<mxfile host="app.diagrams.net" modified="2023-06-18T05:52:28.253Z" agent="Mozilla/5.0 (Windows NT 10.0; Win64; x64) AppleWebKit/537.36 (KHTML, like Gecko) Chrome/114.0.0.0 Safari/537.36" version="21.4.0" etag="fXmUn06cCUbKdtFeYoq9" type="github">
  <diagram name="Page-1" id="DjxONUhNOilz44IvfToD">
    <mxGraphModel>
      <root>
        <mxCell id="0" />
        <mxCell id="1" parent="0" />
      </root>
    </mxGraphModel>
  </diagram>
</mxfile>
